<?xml version="1.0" encoding="UTF-8"?>
<svg id="Layer_1" data-name="Layer 1" xmlns="http://www.w3.org/2000/svg" width="80" height="80" viewBox="0 0 80 80">
  <g id="RIS-LOGO">
    <rect width="80" height="80" fill="#45556c"/>
    <path id="S" d="M55.8,64.5c-.5-.5-1.9-1.7-4.2-3.7-2.5-2.1-4-3.5-4.5-4.1-.4-.5-.5-1-.5-1.5s.3-1,.8-1.5c.5-.4,1.2-.6,2-.6,1.6,0,3.3,1.1,4.9,3.3l4.5-4c-1.7-2-3.3-3.3-4.7-4.1-1.5-.7-3-1.1-4.6-1.1-2.5,0-4.6.8-6.3,2.4-1.7,1.6-2.5,3.5-2.5,5.7s.5,3.1,1.5,4.6c1,1.6,3.3,3.8,6.8,6.6,1.8,1.5,3,2.6,3.6,3.3.5.7.8,1.5.8,2.2s-.4,1.5-1.1,2.1c-.7.6-1.6.9-2.6.9-2,0-3.8-1.4-5.3-4.3l-5.1,3.1c1.2,2.4,2.7,4.2,4.4,5.3.5.3.9.6,1.4.8h9.2c.9-.4,1.8-1,2.5-1.7,1.8-1.7,2.7-3.9,2.7-6.5s-.3-2.6-.8-3.7-1.4-2.3-2.6-3.6l-.3.1Z" fill="#fff"/>
    <rect id="I" x="28.9" y="48" width="6.1" height="32" fill="#fff"/>
    <path id="R" d="M21.3,62.6c1-1.4,1.5-3.2,1.5-5.3s-.5-3.7-1.4-5.2-2.1-2.5-3.6-3.2c-1.5-.6-4-1-7.6-1H3.8v32h6.1v-13.5h.6l7.2,13.5h6.7l-7.6-14.2c2-.7,3.6-1.8,4.6-3.2l-.1.1ZM15.8,59.8c-.7.5-2.1.8-4,.8h-1.9v-6.6h1.7c1.6,0,2.7.1,3.4.3.6.2,1.1.6,1.5,1.1s.5,1.1.5,1.8c0,1.2-.4,2-1.1,2.5l-.1.1Z" fill="#fff"/>
  </g>
</svg>